<svg width="33" height="32" viewBox="0 0 33 32" fill="none" xmlns="http://www.w3.org/2000/svg">
<rect x="0.5" width="32" height="32" rx="16" fill="white"/>
<path d="M17.739 24V16.7022H20.1875L20.5549 13.8573H17.739V12.0412C17.739 11.2178 17.9667 10.6566 19.1488 10.6566L20.654 10.656V8.11138C20.3937 8.07756 19.5002 8 18.4602 8C16.2885 8 14.8017 9.32557 14.8017 11.7594V13.8573H12.3457V16.7022H14.8017V24H17.739Z" fill="#003E51"/>
<path d="M17.739 24V16.7022H20.1875L20.5549 13.8573H17.739V12.0412C17.739 11.2178 17.9667 10.6566 19.1488 10.6566L20.654 10.656V8.11138C20.3937 8.07756 19.5002 8 18.4602 8C16.2885 8 14.8017 9.32557 14.8017 11.7594V13.8573H12.3457V16.7022H14.8017V24H17.739Z" fill="black" fill-opacity="0.2"/>
</svg>
