<svg xmlns="http://www.w3.org/2000/svg" xmlns:xlink="http://www.w3.org/1999/xlink" viewBox="0 0 423.94 337.95"><defs><style>.cls-1{fill:url(#linear-gradient);}.cls-2{fill:url(#linear-gradient-2);}.cls-3{fill:url(#linear-gradient-3);}.cls-4{fill:url(#linear-gradient-4);}.cls-5{fill:url(#linear-gradient-5);}.cls-6{fill:url(#linear-gradient-6);}.cls-7{fill:url(#linear-gradient-7);}.cls-8{fill:url(#linear-gradient-8);}.cls-9{fill:url(#linear-gradient-9);}.cls-10{fill:url(#linear-gradient-10);}.cls-11{fill:url(#linear-gradient-11);}.cls-12{fill:url(#linear-gradient-12);}.cls-13{fill:url(#linear-gradient-13);}.cls-14{fill:url(#linear-gradient-14);}.cls-15{fill:url(#linear-gradient-15);}.cls-16{fill:url(#linear-gradient-16);}.cls-17{fill:url(#linear-gradient-17);}.cls-18{fill:url(#linear-gradient-18);}.cls-19{fill:url(#linear-gradient-19);}.cls-20{fill:url(#linear-gradient-20);}.cls-21{fill:url(#linear-gradient-21);}.cls-22{fill:url(#linear-gradient-22);}.cls-23{fill:url(#linear-gradient-23);}.cls-24{fill:url(#linear-gradient-24);}</style><linearGradient id="linear-gradient" x1="-64.21" y1="43.8" x2="460.49" y2="43.8" gradientUnits="userSpaceOnUse"><stop offset="0" stop-color="#f14ff2"/><stop offset="1" stop-color="#3827d6"/></linearGradient><linearGradient id="linear-gradient-2" x1="-64.21" y1="66.95" x2="460.49" y2="66.95" xlink:href="#linear-gradient"/><linearGradient id="linear-gradient-3" x1="-64.21" y1="76.04" x2="460.49" y2="76.04" xlink:href="#linear-gradient"/><linearGradient id="linear-gradient-4" x1="-64.21" y1="125.2" x2="460.49" y2="125.2" xlink:href="#linear-gradient"/><linearGradient id="linear-gradient-5" x1="-64.21" y1="123.83" x2="460.49" y2="123.83" xlink:href="#linear-gradient"/><linearGradient id="linear-gradient-6" x1="-64.21" y1="184.82" x2="460.49" y2="184.82" xlink:href="#linear-gradient"/><linearGradient id="linear-gradient-7" x1="-64.21" y1="171.55" x2="460.49" y2="171.55" xlink:href="#linear-gradient"/><linearGradient id="linear-gradient-8" x1="-64.21" y1="135.2" x2="460.49" y2="135.2" xlink:href="#linear-gradient"/><linearGradient id="linear-gradient-9" x1="-64.21" y1="159.11" x2="460.49" y2="159.11" xlink:href="#linear-gradient"/><linearGradient id="linear-gradient-10" x1="-64.21" y1="171.46" x2="460.49" y2="171.46" xlink:href="#linear-gradient"/><linearGradient id="linear-gradient-11" x1="-64.21" y1="141.41" x2="460.49" y2="141.41" xlink:href="#linear-gradient"/><linearGradient id="linear-gradient-12" x1="-64.21" y1="173.37" x2="460.49" y2="173.37" xlink:href="#linear-gradient"/><linearGradient id="linear-gradient-13" x1="-64.21" y1="184.32" x2="460.49" y2="184.32" xlink:href="#linear-gradient"/><linearGradient id="linear-gradient-14" x1="-64.21" y1="186.51" x2="460.49" y2="186.51" xlink:href="#linear-gradient"/><linearGradient id="linear-gradient-15" x1="-64.21" y1="166.84" x2="460.49" y2="166.84" xlink:href="#linear-gradient"/><linearGradient id="linear-gradient-16" x1="-64.21" y1="168.31" x2="460.49" y2="168.31" xlink:href="#linear-gradient"/><linearGradient id="linear-gradient-17" x1="-64.21" y1="198.34" x2="460.49" y2="198.34" xlink:href="#linear-gradient"/><linearGradient id="linear-gradient-18" x1="-64.21" y1="195.22" x2="460.49" y2="195.22" xlink:href="#linear-gradient"/><linearGradient id="linear-gradient-19" x1="-64.21" y1="198.1" x2="460.49" y2="198.1" xlink:href="#linear-gradient"/><linearGradient id="linear-gradient-20" x1="-64.21" y1="210.9" x2="460.49" y2="210.9" xlink:href="#linear-gradient"/><linearGradient id="linear-gradient-21" x1="-64.21" y1="240.34" x2="460.49" y2="240.34" xlink:href="#linear-gradient"/><linearGradient id="linear-gradient-22" x1="-64.21" y1="268.7" x2="460.49" y2="268.7" xlink:href="#linear-gradient"/><linearGradient id="linear-gradient-23" x1="-64.21" y1="273.19" x2="460.49" y2="273.19" xlink:href="#linear-gradient"/><linearGradient id="linear-gradient-24" x1="-64.21" y1="307.59" x2="460.49" y2="307.59" xlink:href="#linear-gradient"/></defs><g id="Layer_2" data-name="Layer 2"><g id="Layer_1-2" data-name="Layer 1"><path class="cls-1" d="M248.21,8c-17.71,18.83-30.35,36.8-40.61,57.76-4.95,10.08-5.64,13.89-3.13,17.46a9.67,9.67,0,0,0,15.33,1.19,36.36,36.36,0,0,0,3.82-6.76c8.45-18.34,22.71-39,37.92-54.88,7.26-7.58,8.51-9.58,8.51-13.46,0-2.75-.81-4.44-3.63-7.57-1.5-1.56-2-1.69-6.13-1.69h-4.57Z"/><path class="cls-2" d="M314.8,46.87c-3.82,1.57-20.09,18-24.66,24.91s-.94,15,6.82,15.71c3.88.37,6.89-1.32,10.33-5.7,1.37-1.75,6.51-7.13,11.32-12,9.95-9.89,11-11.64,9.64-16.33A9.77,9.77,0,0,0,322.43,47,13.17,13.17,0,0,0,314.8,46.87Z"/><path class="cls-3" d="M262.6,48.63c-4,2-13.89,16.83-21.71,32.41-4.76,9.58-5.26,10.95-5.26,14.15,0,2.94.32,3.94,1.63,5.57a9.75,9.75,0,0,0,8.13,3.75c4.89,0,6.64-1.56,10.33-9.26a212.25,212.25,0,0,1,16-27.54c4.57-6.63,5.26-8,5.26-10.32A9.89,9.89,0,0,0,262.6,48.63Z"/><path class="cls-4" d="M342.77,72.59c-3,.69-6.45,3.32-13.52,10.33-14,13.89-23.09,28.35-29.1,46.31-4.19,12.52-6.63,27.41-6.26,37.42.26,4.57.51,5.51,1.94,7.45a9.52,9.52,0,0,0,9.7,3.69c5.57-1.5,7.39-4.75,8-14.45,1.31-21.28,7.57-38.74,19.65-54.89a158.21,158.21,0,0,1,12.32-13.64c8.7-8.57,9.45-9.76,8.83-14.21A9.58,9.58,0,0,0,342.77,72.59Z"/><path class="cls-5" d="M366.86,99.38c-9,4.75-21.15,18.46-27.41,31.1-3.5,7-3.94,9.89-2.19,13.33,2.07,4,7.39,6.45,11.33,5.13,3.57-1.19,5.19-2.94,8.45-9.26a69,69,0,0,1,16.52-20.78c5.95-5,7.64-7.82,7.07-12C379.76,100.32,372.62,96.37,366.86,99.38Z"/><path class="cls-6" d="M270.36,114.84c-3.81,1.31-5.57,3.94-7.76,11.45-10.2,35.42-6.38,76.78,10.27,110.58,7.38,15.08,10.26,18.46,15.58,18.46a9.47,9.47,0,0,0,9.76-9.45c0-2.5-.75-4.44-4.69-12-10.39-20-15.08-35.73-16.65-55.82-1.19-14.39.19-28.16,4.51-45.68,1.44-5.76,1.88-8.83,1.56-10.45A9.61,9.61,0,0,0,270.36,114.84Z"/><path class="cls-7" d="M44.26,116.84c-3.82,1.88-5.07,5.13-6.13,16-1.38,13.89-1.82,43.62-.94,58.07,1,15.33,2.69,28.48,4,31.29,3.26,6.76,13.4,6.76,16.9,0,1.31-2.44,1.25-5.13-.5-21C56,186.49,55.71,161,57,143.94c1.44-19.59,1.44-21.16.07-23.6C54.59,116.28,48.7,114.65,44.26,116.84Z"/><path class="cls-8" d="M81,117.15c-4.32,2.44-5.45,6.7-6.51,24-.32,5.32-.25,6.57.75,8.39,3.56,6.82,13.77,6.69,17-.19,1.56-3.32,3.5-23.41,2.57-26.66A9.43,9.43,0,0,0,81,117.15Z"/><path class="cls-9" d="M118.92,116.4c-1.82.75-4.51,3.76-5.32,5.95-1.19,3.06-3.13,24-3.5,37.86-.51,15.83.5,34.1,2,37.23,1.62,3.51,4.25,5,8.7,5s6.63-1.25,8.44-5c1.26-2.63,1.32-2.94.57-16.14a280.23,280.23,0,0,1,1.69-48.25c1-9.08,1-9.08-.32-11.89C129.06,116.9,123.24,114.59,118.92,116.4Z"/><path class="cls-10" d="M194.33,116.21c-4.76,1.82-6.51,5.26-8.07,16.21-2.19,15.27-2.76,24.6-2.38,41.55.37,15.77,1.12,23.72,3.56,37.24,1.63,8.89,2.76,11.7,5.39,14.08,1.87,1.63,2.63,1.88,5.75,1.88,4.26,0,7.08-1.5,8.64-4.45,1.31-2.56,1-7.57-1.19-20-3.82-21.9-3.94-42.55-.44-66.83,1.63-11,1.63-13.21-.18-15.84C203.15,116.65,198,114.84,194.33,116.21Z"/><path class="cls-11" d="M230.94,116.65c-3.32,1.44-4.76,3.69-6,9.2a201.71,201.71,0,0,0-4.07,26.6c-.37,5.57-.25,6.63.88,9.26,1.06,2.31,1.88,3.19,4,4.13,3.51,1.63,5.89,1.56,9.27-.19,3.75-1.88,4.75-4.19,5.63-13,.37-3.95,1.38-11.2,2.25-16.09a114.27,114.27,0,0,0,1.5-11.64C244.39,118.28,237.2,113.9,230.94,116.65Z"/><path class="cls-12" d="M382.38,135.49c-5.63,1.94-11.89,12.2-14.2,23.28a42,42,0,0,0,1.37,23.4c4.32,13,11.39,21.22,23.47,27.35,9.7,4.94,17.21,1.63,17.21-7.57,0-4.07-1.94-6.45-7.82-9.76-6.38-3.57-10.51-7.7-13-13.08-1.87-3.88-2-4.63-2-10.83v-6.7l3.94-7.69c2.13-4.26,3.88-8.58,3.88-9.52,0-4.25-3.94-8.57-8.45-9.38A11.16,11.16,0,0,0,382.38,135.49Z"/><path class="cls-13" d="M152.71,142.06c-2.69,1.12-4.69,4.07-5.32,7.88-.81,5-.18,35.86.94,47.25,1.13,11,3.13,22.59,4.38,25a14.78,14.78,0,0,0,2.82,3.38c1.63,1.32,2.63,1.63,5.44,1.63,5.76,0,9-2.88,9.45-8.39.13-1.75-.69-9.13-1.75-16.33-1.88-12.14-2-14.71-2.31-33.79-.38-22.72-.51-23.79-4.2-26C160.1,141.37,155,141.06,152.71,142.06Z"/><path class="cls-14" d="M5,150.76c-2.5,1.5-4,3.63-4.07,5.69L.83,158l-.44-1.57c-.31-.87-.44,8.14-.37,20C.08,200.88,1.2,215,3.27,218.53A9.55,9.55,0,0,0,20,218.47c1.19-2.07,1.19-2.5.44-14.39-.5-6.76-1-20.34-1.25-30.17L18.79,156,17,153.7C13.91,149.69,8.78,148.44,5,150.76Z"/><path class="cls-15" d="M338.7,154.2c-5.25,1.94-7.07,5.82-6.44,13.58.5,6.32,1.5,8.76,4.25,10.45,4.88,3.07,10.14,2.19,13.39-2.13,1.76-2.25,1.82-2.69,1.82-8.63,0-5-.25-6.83-1.25-8.83A9.61,9.61,0,0,0,338.7,154.2Z"/><path class="cls-16" d="M409.92,157.33c-4.69,2-6.76,7.32-5.38,13.89.87,4.51,2.56,6.82,6,8.14,4.81,1.81,8.94.37,12.07-4.2,1.32-1.87,1.44-2.69,1.26-6.5-.38-5.57-2-8.95-5.39-10.83A9.25,9.25,0,0,0,409.92,157.33Z"/><path class="cls-17" d="M77.87,171c-4,2.63-4.45,4.45-4.07,15.77.56,15.71,2.75,32.92,4.57,36.11,3.44,5.7,12.83,5.57,16.52-.25,1.44-2.31,1.37-5.44-.31-20-.51-4.38-1.13-11.83-1.32-16.58-.31-6.58-.75-9.33-1.63-11.27C89.32,170,82.37,168,77.87,171Z"/><path class="cls-18" d="M225.81,176.85c-3.07,1.51-4.7,4.63-4.63,8.64.06,7.51,2.37,21.4,4.13,24.72,1.37,2.69,4.63,4.44,8.19,4.44,5.64,0,9.64-3.94,9.64-9.39,0-4.63-3-23-4.07-25C237,176.16,230.5,174.54,225.81,176.85Z"/><path class="cls-19" d="M303.53,181.92a12.67,12.67,0,0,0-3,1.57c-4.76,3.38-4.88,9.63-.38,22.09,2.38,6.63,4.32,8.57,8.89,8.95,5.76.43,10.2-2.76,10.89-7.95.37-3-2.63-14.77-5.26-20.53C313.17,182.74,308,180.86,303.53,181.92Z"/><path class="cls-20" d="M340.45,184.24c-4.56,2.06-6.38,6.51-4.94,12,2.38,9.2,10.14,21.53,19.28,30.61,8.07,8,12.45,11,16.45,11.38a9.7,9.7,0,0,0,9.89-13.83c-.56-1.12-3.31-3.88-6.19-6.19-8.76-6.95-14.08-13.71-19.22-24.47-3.88-8.07-5.63-9.89-10.07-10.2A11.49,11.49,0,0,0,340.45,184.24Z"/><path class="cls-21" d="M315.11,217.34c-3.63,1.94-5.13,4.76-4.82,9.08.19,2.81.81,4.13,4.38,9.45a118.72,118.72,0,0,0,19.34,22c6.57,5.7,8.7,6.89,12.52,6.89,6.82,0,11.32-7.64,8.26-14.08-.5-1.13-2.7-3.45-4.82-5.2a106.11,106.11,0,0,1-20.4-22.9c-2.44-3.63-3.7-4.82-5.7-5.64C320.43,215.53,318.3,215.65,315.11,217.34Z"/><path class="cls-22" d="M236.57,221.29c-4.38,2.25-6.38,6-5.51,10.32.63,3.38,5.32,14.58,9.83,23.66a189.63,189.63,0,0,0,39.86,53.5c7.39,7,10.58,8.83,14.46,8.2,5.26-.94,9.39-6.82,8-11.51-.88-3.19-1.75-4.26-10-12.33a173.77,173.77,0,0,1-40.68-59.7c-1.75-4.32-3.63-8.45-4.13-9.27C246.08,220.6,240.45,219.22,236.57,221.29Z"/><path class="cls-23" d="M299.9,256.21c-3,1.12-3.88,1.81-5.07,4.38a11.27,11.27,0,0,0,.25,9.63c1.82,3,10.89,12.27,16.15,16.46,4.76,3.82,7.26,4.76,11.08,4.07,2.94-.56,6.25-3.88,7.13-7.07,1.31-4.82.13-6.7-10.95-17.34-5.38-5.19-10.39-9.76-11.14-10.2C305.66,255.14,302.84,255.2,299.9,256.21Z"/><path class="cls-24" d="M224.05,278.11a9.36,9.36,0,0,0-5.31,10.7c.87,3.94,8.13,14.71,17.58,26.22,6.63,8,19.09,20.84,21.34,22,3.63,1.88,9.45.69,12.33-2.63,1.69-1.88,1.94-2.63,1.94-5.76,0-4.38-.25-4.81-8.39-13.26a242.25,242.25,0,0,1-26-31.73C233.69,277.86,229,275.92,224.05,278.11Z"/></g></g></svg>