<svg width="33" height="32" viewBox="0 0 33 32" fill="none" xmlns="http://www.w3.org/2000/svg">
<rect x="0.5" width="32" height="32" rx="16" fill="white"/>
<rect width="16" height="16" transform="translate(8.5 8)" fill="white"/>
<path d="M19.832 9.33398H13.1654C11.3244 9.33398 9.83203 10.8264 9.83203 12.6673V19.334C9.83203 21.1749 11.3244 22.6673 13.1654 22.6673H19.832C21.673 22.6673 23.1654 21.1749 23.1654 19.334V12.6673C23.1654 10.8264 21.673 9.33398 19.832 9.33398Z" fill="#003E51"/>
<path d="M19.832 9.33398H13.1654C11.3244 9.33398 9.83203 10.8264 9.83203 12.6673V19.334C9.83203 21.1749 11.3244 22.6673 13.1654 22.6673H19.832C21.673 22.6673 23.1654 21.1749 23.1654 19.334V12.6673C23.1654 10.8264 21.673 9.33398 19.832 9.33398Z" fill="black" fill-opacity="0.2"/>
<path d="M19.1639 15.5802C19.2461 16.135 19.1514 16.7017 18.893 17.1995C18.6347 17.6974 18.226 18.1011 17.725 18.3533C17.2239 18.6055 16.6562 18.6933 16.1024 18.6042C15.5486 18.515 15.037 18.2536 14.6404 17.857C14.2438 17.4604 13.9824 16.9488 13.8932 16.395C13.8041 15.8412 13.8919 15.2735 14.1441 14.7725C14.3963 14.2714 14.8 13.8627 15.2979 13.6044C15.7957 13.346 16.3624 13.2513 16.9172 13.3335C17.4831 13.4175 18.0071 13.6812 18.4117 14.0857C18.8162 14.4903 19.0799 15.0143 19.1639 15.5802Z" fill="white"/>
<path d="M20.168 12.334H20.178" stroke="white" stroke-width="2" stroke-linecap="round" stroke-linejoin="round"/>
</svg>
