<svg width="33" height="32" viewBox="0 0 33 32" fill="none" xmlns="http://www.w3.org/2000/svg">
<rect x="0.5" width="32" height="32" rx="16" fill="white"/>
<path d="M22.899 22.3995V17.7115C22.899 15.4075 22.403 13.6475 19.715 13.6475C18.419 13.6475 17.555 14.3515 17.203 15.0235H17.171V13.8555H14.627V22.3995H17.283V18.1595C17.283 17.0395 17.491 15.9675 18.867 15.9675C20.227 15.9675 20.243 17.2315 20.243 18.2235V22.3835H22.899V22.3995Z" fill="#003E51"/>
<path d="M22.899 22.3995V17.7115C22.899 15.4075 22.403 13.6475 19.715 13.6475C18.419 13.6475 17.555 14.3515 17.203 15.0235H17.171V13.8555H14.627V22.3995H17.283V18.1595C17.283 17.0395 17.491 15.9675 18.867 15.9675C20.227 15.9675 20.243 17.2315 20.243 18.2235V22.3835H22.899V22.3995Z" fill="black" fill-opacity="0.2"/>
<path d="M10.3066 13.8555H12.9626V22.3995H10.3066V13.8555Z" fill="#003E51"/>
<path d="M10.3066 13.8555H12.9626V22.3995H10.3066V13.8555Z" fill="black" fill-opacity="0.2"/>
<path d="M11.6356 9.59961C10.7876 9.59961 10.0996 10.2876 10.0996 11.1356C10.0996 11.9836 10.7876 12.6876 11.6356 12.6876C12.4836 12.6876 13.1716 11.9836 13.1716 11.1356C13.1716 10.2876 12.4836 9.59961 11.6356 9.59961Z" fill="#003E51"/>
<path d="M11.6356 9.59961C10.7876 9.59961 10.0996 10.2876 10.0996 11.1356C10.0996 11.9836 10.7876 12.6876 11.6356 12.6876C12.4836 12.6876 13.1716 11.9836 13.1716 11.1356C13.1716 10.2876 12.4836 9.59961 11.6356 9.59961Z" fill="black" fill-opacity="0.2"/>
</svg>
