<?xml version="1.0" encoding="utf-8"?>
<!-- Generator: Adobe Illustrator 19.0.0, SVG Export Plug-In . SVG Version: 6.00 Build 0)  -->
<svg version="1.1" id="Layer_1" xmlns="http://www.w3.org/2000/svg" xmlns:xlink="http://www.w3.org/1999/xlink" x="0px" y="0px"
	 viewBox="0 0 1500.61 195.18" style="enable-background:new 0 0 1500.61 195.18;" xml:space="preserve">
<style type="text/css">
	.st0{fill:#FFFFFF;}
	.st1{fill:url(#SVGID_1_);}
	.st2{fill:url(#SVGID_2_);}
	.st3{fill:url(#SVGID_3_);}
	.st4{fill:url(#SVGID_4_);}
	.st5{fill:url(#SVGID_5_);}
</style>
<path class="st0" d="M228.58,73.46c-3.13-3.43-8.45-3.67-11.88-0.54l-75.18,67.64c-3.43,3.13-3.67,8.45-0.54,11.88l0,0
	c3.13,3.43,8.45,3.67,11.88,0.54l75.18-67.64C231.47,82.2,231.71,76.88,228.58,73.46z"/>
<circle class="st0" cx="147.19" cy="146.76" r="25.31"/>
<g>
	<linearGradient id="SVGID_1_" gradientUnits="userSpaceOnUse" x1="164.5772" y1="-4.4107" x2="292.9048" y2="190.5399">
		<stop  offset="0" style="stop-color:#00C176"/>
		<stop  offset="0.25" style="stop-color:#88C100"/>
		<stop  offset="0.6969" style="stop-color:#FF8A00"/>
		<stop  offset="0.9209" style="stop-color:#FF252C"/>
		<stop  offset="1" style="stop-color:#FF003C"/>
	</linearGradient>
	<path class="st1" d="M266.23,186.97l19.82,8.21c4.41-12.65,7.1-26.06,7.9-40.01h-21.46C271.75,166.23,269.64,176.88,266.23,186.97z
		"/>
	<linearGradient id="SVGID_2_" gradientUnits="userSpaceOnUse" x1="196.3945" y1="-25.3546" x2="324.722" y2="169.596">
		<stop  offset="0" style="stop-color:#00C176"/>
		<stop  offset="0.25" style="stop-color:#88C100"/>
		<stop  offset="0.6969" style="stop-color:#FF8A00"/>
		<stop  offset="0.9209" style="stop-color:#FF252C"/>
		<stop  offset="1" style="stop-color:#FF003C"/>
	</linearGradient>
	<path class="st2" d="M259.76,91.03l19.84-8.22c-5.99-12.37-13.62-23.76-22.68-33.9l-15.18,15.18
		C248.86,72.23,254.91,81.26,259.76,91.03z"/>
	<linearGradient id="SVGID_3_" gradientUnits="userSpaceOnUse" x1="163.5007" y1="-3.7021" x2="291.8283" y2="191.2486">
		<stop  offset="0" style="stop-color:#00C176"/>
		<stop  offset="0.25" style="stop-color:#88C100"/>
		<stop  offset="0.6969" style="stop-color:#FF8A00"/>
		<stop  offset="0.9209" style="stop-color:#FF252C"/>
		<stop  offset="1" style="stop-color:#FF003C"/>
	</linearGradient>
	<path class="st3" d="M187.4,27.72l8.21-19.82c-12.65-4.41-26.06-7.1-40.01-7.9v21.46C166.66,22.2,177.31,24.31,187.4,27.72z"/>
	<linearGradient id="SVGID_4_" gradientUnits="userSpaceOnUse" x1="187.641" y1="-19.5926" x2="315.9686" y2="175.358">
		<stop  offset="0" style="stop-color:#00C176"/>
		<stop  offset="0.25" style="stop-color:#88C100"/>
		<stop  offset="0.6969" style="stop-color:#FF8A00"/>
		<stop  offset="0.9209" style="stop-color:#FF252C"/>
		<stop  offset="1" style="stop-color:#FF003C"/>
	</linearGradient>
	<path class="st4" d="M229.86,52.2l15.18-15.18c-10.14-9.05-21.53-16.69-33.9-22.68l-8.22,19.84
		C212.69,39.03,221.72,45.08,229.86,52.2z"/>
	<linearGradient id="SVGID_5_" gradientUnits="userSpaceOnUse" x1="188.2183" y1="-19.9726" x2="316.5458" y2="174.978">
		<stop  offset="0" style="stop-color:#00C176"/>
		<stop  offset="0.25" style="stop-color:#88C100"/>
		<stop  offset="0.6969" style="stop-color:#FF8A00"/>
		<stop  offset="0.9209" style="stop-color:#FF252C"/>
		<stop  offset="1" style="stop-color:#FF003C"/>
	</linearGradient>
	<path class="st5" d="M272.49,138.35h21.46c-0.79-13.95-3.48-27.37-7.9-40.01l-19.82,8.21
		C269.64,116.64,271.75,127.29,272.49,138.35z"/>
</g>
<g>
	<path class="st0" d="M0,146.76c0,8.2,0.82,16.19,2.14,24.01h21.72c-1.53-7.77-2.39-15.78-2.39-24.01
		c0.01-34.75,14.06-66.12,36.82-88.9c20.92-20.91,49.12-34.32,80.49-36.4V0C61.42,4.39,0.01,68.31,0,146.76z"/>
</g>
<g>
	<g>
		<g>
			<path class="st0" d="M419.98,84.84v-0.75h13.64c3.03,0,5.65-0.33,7.87-0.99c2.22-0.66,4.12-1.52,5.68-2.57
				c1.56-1.06,2.85-2.22,3.86-3.49c1.01-1.26,1.87-2.55,2.58-3.86c2.12-3.94,3.4-7.95,3.86-12.04c0.45-4.09,0.68-8.05,0.68-11.89
				c0-3.84-0.25-7.77-0.75-11.81c-0.51-4.04-2.03-7.88-4.55-11.51c-1.52-2.32-3.21-4.14-5.07-5.46c-1.87-1.31-3.81-2.27-5.83-2.87
				c-2.02-0.61-4.04-0.99-6.06-1.14c-2.02-0.15-3.94-0.23-5.76-0.23h-67.41v106.03h20V32.13h0.07h0.34h39.43
				c1.61,0,3.49,0.13,5.6,0.38c2.12,0.25,3.99,1.19,5.6,2.8c1.11,1.11,2.02,2.78,2.73,5c0.71,2.22,1.05,5.45,1.05,9.69
				c0,0.91-0.02,2.02-0.07,3.33c-0.06,1.31-0.15,2.65-0.31,4.01c-0.15,1.36-0.41,2.7-0.75,4.01c-0.36,1.31-0.78,2.38-1.29,3.18
				c-1.41,2.12-3.15,3.43-5.23,3.94c-2.07,0.51-3.96,0.76-5.68,0.76h-19.99c-2.93,0-5.16,0.68-6.67,2.05
				c-1.52,1.36-2.28,3.1-2.28,5.23v2.42c0,1.52,0.56,3.11,1.67,4.77s2.22,3.06,3.33,4.17l34.83,34.38h25.15L419.98,84.84z"/>
			<polygon class="st0" points="627.16,106.36 627.16,16.23 607.17,16.23 607.17,122.26 691.69,122.26 691.69,106.36 			"/>
			<polygon class="st0" points="735.08,106.36 735.08,16.23 715.08,16.23 715.08,122.26 799.6,122.26 799.6,106.36 			"/>
			<path class="st0" d="M876.32,16.23h21.51L853,89.84v32.42h-20V89.84l-44.83-73.62h21.5L843,71.82L876.32,16.23z"/>
			<g>
				<path class="st0" d="M520.39,17.67c0.2-0.14,0.11-0.29-0.1-0.43C520.24,17.59,520.26,17.76,520.39,17.67z"/>
				<path class="st0" d="M518.27,16.23l-0.16,0.38l-44.29,105.65h21.05l5.5-13.71h0l27.82-70.5c0.3-0.81,0.71-1.74,1.22-2.81
					c0.5-1.06,1.1-1.59,1.82-1.59c0.71,0,1.31,0.53,1.82,1.59c0.5,1.06,0.91,1.99,1.21,2.81l27.33,69.49l5.99,14.73h21.06
					l-44.4-106.03H518.27z M520.39,17.67c-0.14,0.1-0.16-0.08-0.1-0.43C520.5,17.38,520.6,17.52,520.39,17.67z"/>
			</g>
		</g>
		<g>
			<path class="st0" d="M1097.66,84.84v-0.75h13.64c3.03,0,5.65-0.33,7.87-0.99c2.22-0.66,4.12-1.52,5.68-2.57
				c1.56-1.06,2.85-2.22,3.86-3.49c1.01-1.26,1.87-2.55,2.58-3.86c2.12-3.94,3.4-7.95,3.86-12.04c0.45-4.09,0.68-8.05,0.68-11.89
				c0-3.84-0.25-7.77-0.75-11.81c-0.51-4.04-2.03-7.88-4.55-11.51c-1.52-2.32-3.21-4.14-5.07-5.46c-1.87-1.31-3.81-2.27-5.83-2.87
				c-2.02-0.61-4.04-0.99-6.06-1.14c-2.02-0.15-3.94-0.23-5.76-0.23h-67.41v106.03h20V32.13h0.07h0.34h39.43
				c1.61,0,3.49,0.13,5.6,0.38c2.12,0.25,3.99,1.19,5.6,2.8c1.11,1.11,2.02,2.78,2.73,5c0.71,2.22,1.05,5.45,1.05,9.69
				c0,0.91-0.02,2.02-0.07,3.33c-0.06,1.31-0.15,2.65-0.31,4.01s-0.41,2.7-0.75,4.01c-0.36,1.31-0.78,2.38-1.29,3.18
				c-1.41,2.12-3.15,3.43-5.23,3.94c-2.07,0.51-3.96,0.76-5.68,0.76h-19.99c-2.93,0-5.16,0.68-6.67,2.05
				c-1.52,1.36-2.28,3.1-2.28,5.23v2.42c0,1.52,0.56,3.11,1.67,4.77s2.22,3.06,3.33,4.17l34.83,34.38h25.15L1097.66,84.84z"/>
			<path class="st0" d="M1390.07,58.19c-0.15-3.43-0.58-6.87-1.29-10.3c-0.71-3.43-1.8-6.76-3.26-10c-1.47-3.23-3.46-6.26-5.98-9.09
				c-3.23-3.53-7.38-6.51-12.42-8.94c-5.05-2.42-11.26-3.64-18.63-3.64H1292v106.03h59.22c4.14,0,7.82-0.4,11.06-1.21
				c3.23-0.81,6.06-1.87,8.48-3.18c2.42-1.31,4.44-2.72,6.06-4.24c1.61-1.51,2.98-2.98,4.09-4.39c2.12-2.83,3.81-6.03,5.07-9.62
				c1.26-3.58,2.22-7.24,2.88-10.98c0.66-3.74,1.06-7.37,1.21-10.91c0.15-3.53,0.23-6.76,0.23-9.69
				C1390.3,64.9,1390.23,61.62,1390.07,58.19z M1368.04,86.74c-1.11,4.49-2.33,7.75-3.64,9.77c-2.32,3.74-5.32,6.31-9.01,7.73
				c-3.68,1.41-8.31,2.12-13.85,2.12h-29.52c-0.01-3.39-0.02-6.73-0.02-7.27V32.13h27.57c1.82,0,3.73,0.1,5.76,0.3
				c2.02,0.2,4.04,0.58,6.06,1.14c2.02,0.56,3.96,1.34,5.83,2.35c1.87,1.01,3.56,2.33,5.07,3.94c1.61,1.72,2.93,3.66,3.94,5.83
				c1.01,2.17,1.76,4.42,2.27,6.74c0.5,2.32,0.83,4.69,0.99,7.12c0.15,2.42,0.22,4.75,0.22,6.97
				C1369.7,75.51,1369.15,82.25,1368.04,86.74z"/>
			<polygon class="st0" points="1435.63,106.36 1435.63,76.06 1498.48,76.06 1498.48,60.15 1435.63,60.15 1435.63,32.13 1500,32.13 
				1500,16.23 1415.63,16.23 1415.63,122.26 1500.61,122.26 1500.61,106.36 			"/>
			<path class="st0" d="M1199.67,16.23l-0.16,0.38l-44.29,105.65h21.05l5.5-13.71h0l27.82-70.5c0.3-0.81,0.71-1.74,1.22-2.81
				c0.5-1.06,1.1-1.59,1.82-1.59c0.71,0,1.31,0.53,1.82,1.59c0.5,1.06,0.91,1.99,1.21,2.81l27.33,69.49l5.99,14.73h21.06
				l-44.4-106.03H1199.67z M1201.8,17.67l-0.1-0.43L1201.8,17.67z"/>
			<polygon class="st0" points="922.58,16.23 912.89,32.13 954,32.13 954,122.26 973.99,122.26 973.99,32.13 1015.5,32.13 
				1015.5,16.23 			"/>
		</g>
	</g>
	<g>
		<path class="st0" d="M362.73,144.09h10.52c3.07,0,5.85,0.44,8.35,1.31c2.5,0.87,4.62,2.08,6.39,3.64
			c1.76,1.55,3.12,3.39,4.08,5.52c0.96,2.13,1.44,4.45,1.44,6.96s-0.48,4.83-1.44,6.96c-0.96,2.13-2.32,3.97-4.08,5.52
			c-1.76,1.55-3.89,2.77-6.39,3.64c-2.49,0.87-5.28,1.31-8.35,1.31h-10.52V144.09z M373.41,173.14c1.85,0,3.56-0.26,5.13-0.79
			c1.57-0.53,2.92-1.29,4.06-2.29c1.13-1,2.02-2.22,2.64-3.65c0.63-1.44,0.94-3.07,0.94-4.89c0-1.82-0.31-3.45-0.94-4.89
			c-0.63-1.44-1.51-2.65-2.64-3.65c-1.13-1-2.49-1.76-4.06-2.29c-1.57-0.53-3.28-0.79-5.13-0.79h-3.35v23.24H373.41z"/>
		<path class="st0" d="M456.53,154.72c0,2.48-0.7,4.56-2.09,6.25c-1.4,1.69-3.4,2.99-6.02,3.9l11.78,14.08h-9.11l-10.1-12.72h-2.36
			v12.72h-7.33v-34.86h10.42c2.16,0,4.15,0.22,5.97,0.65s3.38,1.1,4.69,1.99c1.31,0.89,2.33,2,3.06,3.32
			C456.17,151.39,456.53,152.94,456.53,154.72z M449.2,154.88c0-1.78-0.7-3.07-2.09-3.87c-1.4-0.8-3.21-1.2-5.44-1.2h-3.03v10.89
			h2.2c2.51,0,4.54-0.49,6.07-1.47C448.44,158.24,449.2,156.8,449.2,154.88z"/>
		<path class="st0" d="M503.9,178.96h-7.33v-34.86h7.33V178.96z"/>
		<path class="st0" d="M564.73,144.09h7.64l-11.73,34.86h-8.48l-11.72-34.86h7.64l8.32,27.43L564.73,144.09z"/>
		<path class="st0" d="M608.65,144.09h20.94v5.81h-13.61v8.43h12.98v5.81h-12.98v9h13.77v5.81h-21.09V144.09z"/>
		<path class="st0" d="M735.69,144.09v5.81h-9.63v29.05h-7.33V149.9h-9.63v-5.81H735.69z"/>
		<path class="st0" d="M794.58,178.96V164.3h-14.45v14.66h-7.33v-34.86h7.33v14.13h14.45v-14.13h7.33v34.86H794.58z"/>
		<path class="st0" d="M841.69,144.09h20.94v5.81h-13.61v8.43H862v5.81h-12.98v9h13.77v5.81h-21.09V144.09z"/>
		<path class="st0" d="M974.7,144.09h6.6l2.56,34.86h-7.17l-1.2-21.67l-7.7,15.81h-7.54l-7.7-15.81l-1.2,21.67h-7.17l2.56-34.86
			h6.59l10.68,22.51L974.7,144.09z"/>
		<path class="st0" d="M1054.26,178.96h-7.59l-2.46-7.33h-14.34l-2.46,7.33h-7.59l13.24-34.86h7.96L1054.26,178.96z M1037.04,149.96
			l-5.23,15.86h10.47L1037.04,149.96z"/>
		<path class="st0" d="M1116.61,154.72c0,2.48-0.7,4.56-2.09,6.25c-1.4,1.69-3.4,2.99-6.02,3.9l11.78,14.08h-9.11l-10.1-12.72h-2.36
			v12.72h-7.33v-34.86h10.42c2.16,0,4.15,0.22,5.97,0.65c1.81,0.44,3.38,1.1,4.69,1.99c1.31,0.89,2.33,2,3.06,3.32
			C1116.24,151.39,1116.61,152.94,1116.61,154.72z M1109.28,154.88c0-1.78-0.7-3.07-2.09-3.87c-1.4-0.8-3.21-1.2-5.44-1.2h-3.03
			v10.89h2.2c2.51,0,4.54-0.49,6.07-1.47C1108.51,158.24,1109.28,156.8,1109.28,154.88z"/>
		<path class="st0" d="M1156.39,178.96v-34.86h7.33v16.75l12.09-16.75h8.48l-12.83,17.22l13.71,17.64h-9.05l-12.41-17.12v17.12
			H1156.39z"/>
		<path class="st0" d="M1221.56,144.09h20.94v5.81h-13.61v8.43h12.98v5.81h-12.98v9h13.77v5.81h-21.09V144.09z"/>
		<path class="st0" d="M1305.42,144.09v5.81h-9.63v29.05h-7.33V149.9h-9.63v-5.81H1305.42z"/>
	</g>
</g>
</svg>
