<svg width="33" height="32" viewBox="0 0 33 32" fill="none" xmlns="http://www.w3.org/2000/svg">
<rect x="0.5" width="32" height="32" rx="16" fill="white"/>
<g clip-path="url(#clip0_544_66289)">
<path d="M24.5 11.039C23.905 11.3 23.271 11.473 22.61 11.557C23.29 11.151 23.809 10.513 24.053 9.744C23.419 10.122 22.719 10.389 21.973 10.538C21.371 9.897 20.513 9.5 19.577 9.5C17.761 9.5 16.299 10.974 16.299 12.781C16.299 13.041 16.321 13.291 16.375 13.529C13.648 13.396 11.235 12.089 9.614 10.098C9.331 10.589 9.165 11.151 9.165 11.756C9.165 12.892 9.75 13.899 10.622 14.482C10.095 14.472 9.578 14.319 9.14 14.078C9.14 14.088 9.14 14.101 9.14 14.114C9.14 15.708 10.277 17.032 11.768 17.337C11.501 17.41 11.21 17.445 10.908 17.445C10.698 17.445 10.486 17.433 10.287 17.389C10.712 18.688 11.918 19.643 13.352 19.674C12.236 20.547 10.819 21.073 9.285 21.073C9.016 21.073 8.758 21.061 8.5 21.028C9.953 21.965 11.675 22.5 13.532 22.5C19.568 22.5 22.868 17.5 22.868 13.166C22.868 13.021 22.863 12.881 22.856 12.742C23.507 12.28 24.054 11.703 24.5 11.039Z" fill="#003E51"/>
<path d="M24.5 11.039C23.905 11.3 23.271 11.473 22.61 11.557C23.29 11.151 23.809 10.513 24.053 9.744C23.419 10.122 22.719 10.389 21.973 10.538C21.371 9.897 20.513 9.5 19.577 9.5C17.761 9.5 16.299 10.974 16.299 12.781C16.299 13.041 16.321 13.291 16.375 13.529C13.648 13.396 11.235 12.089 9.614 10.098C9.331 10.589 9.165 11.151 9.165 11.756C9.165 12.892 9.75 13.899 10.622 14.482C10.095 14.472 9.578 14.319 9.14 14.078C9.14 14.088 9.14 14.101 9.14 14.114C9.14 15.708 10.277 17.032 11.768 17.337C11.501 17.41 11.21 17.445 10.908 17.445C10.698 17.445 10.486 17.433 10.287 17.389C10.712 18.688 11.918 19.643 13.352 19.674C12.236 20.547 10.819 21.073 9.285 21.073C9.016 21.073 8.758 21.061 8.5 21.028C9.953 21.965 11.675 22.5 13.532 22.5C19.568 22.5 22.868 17.5 22.868 13.166C22.868 13.021 22.863 12.881 22.856 12.742C23.507 12.28 24.054 11.703 24.5 11.039Z" fill="black" fill-opacity="0.2"/>
</g>
<defs>
<clipPath id="clip0_544_66289">
<rect width="16" height="16" fill="white" transform="translate(8.5 8)"/>
</clipPath>
</defs>
</svg>
